<svg viewBox="0 0 64 64" fill="none" xmlns="http://www.w3.org/2000/svg">
<g clip-path="url(#clip0_1632_704)">
<path d="M32.0045 39C36.3385 39 39.8522 39.6716 39.8522 40.5C41.164 47.7534 42.6941 58.5622 41.1452 62.957C39.9534 66.3406 36.4387 67.2382 32.0036 67.2383C27.5683 67.2382 24.0528 66.3407 22.861 62.957C21.3149 58.5615 22.8442 47.7533 24.1559 40.5L24.1666 40.4229C24.3766 39.6303 27.8057 39 32.0045 39Z" stroke="var(--secondary)" stroke-width="2"/>
<path d="M32 28C46.3594 28 58 32.701 58 38.5C58 43.0087 50.9631 46.852 41.083 48.3398C40.7241 45.5794 40.278 42.8525 39.8525 40.5C39.8525 39.6716 36.3387 39.0001 32.0049 39C27.8062 39 24.3772 39.6303 24.167 40.4229L24.1562 40.5C23.7307 42.8529 23.2827 45.58 22.9238 48.3408C13.0401 46.8537 6 43.0097 6 38.5C6 32.701 17.6406 28 32 28Z" stroke="var(--secondary)" stroke-width="2"/>
<path d="M32.002 15C33.9582 15.0002 36.6462 15.8147 39.6104 17.2822C42.5492 18.7372 45.6607 20.785 48.4404 23.1357C51.2243 25.49 53.6383 28.1171 55.2158 30.7178C55.8311 31.7322 56.3058 32.7244 56.6318 33.6797C56.5376 33.5899 56.4414 33.5008 56.3428 33.4131C54.8631 32.098 52.8317 30.956 50.4248 30.0166C45.6072 28.1364 39.1112 27 31.999 27C24.8915 27 18.3989 28.1349 13.582 30.0127C11.1756 30.9508 9.14404 32.091 7.66309 33.4043C7.563 33.4931 7.46472 33.5829 7.36914 33.6738C7.6963 32.7172 8.17403 31.7247 8.79102 30.709C10.3703 28.109 12.7847 25.4829 15.5684 23.1299C18.3479 20.7804 21.4587 18.7342 24.3965 17.2803C27.3596 15.8138 30.0465 15.0001 32.002 15Z" fill="var(--primary)" stroke="var(--secondary)" stroke-width="2"/>
</g>
<defs>
<clipPath id="clip0_1632_704">
<rect width="64" height="64" fill="white"/>
</clipPath>
</defs>
</svg>
