<svg viewBox="0 0 64 64" fill="none" xmlns="http://www.w3.org/2000/svg">
  <g clip-path="url(#clip0_1632_704)">
    <path fill-rule="evenodd" clip-rule="evenodd"
      d="M39.8507 51.2616C41.1625 58.515 42.6943 69.324 41.1453 73.7188C39.9536 77.1026 36.4383 78 32.0029 78C27.5675 78 24.0524 77.1026 22.8605 73.7188C21.3144 69.3234 22.8434 58.5149 24.1552 51.2616C26.4758 51.5245 29.0679 51.6617 32.0033 51.6617C34.9355 51.6617 37.5277 51.5245 39.8514 51.2616H39.8507Z"
      fill="currentColor" />
    <path fill-rule="evenodd" clip-rule="evenodd"
      d="M32.0026 14C42.2168 14 67.0518 33.5337 54.8571 42.6219C49.5871 46.5487 43.7086 48.8007 32.0026 48.8007C20.2936 48.8007 14.415 46.5487 9.14514 42.6219C-3.04666 33.5337 21.7884 14 32.0026 14Z"
      fill="currentColor" />
  </g>
  <defs>
    <clipPath id="clip0_1632_704">
      <rect width="64" height="64" fill="white" />
    </clipPath>
  </defs>
</svg>