<svg viewBox="0 0 64 64" fill="none" xmlns="http://www.w3.org/2000/svg">
<g clip-path="url(#clip0_1632_704)">
<path d="M32.0045 39C36.3385 39 39.8522 39.6716 39.8522 40.5C41.164 47.7534 42.6941 58.5622 41.1452 62.957C39.9534 66.3406 36.4387 67.2382 32.0036 67.2383C27.5683 67.2382 24.0528 66.3407 22.861 62.957C21.3149 58.5615 22.8442 47.7533 24.1559 40.5L24.1666 40.4229C24.3766 39.6303 27.8057 39 32.0045 39Z" stroke="currentColor" stroke-width="2"/>
<path d="M32 28C46.3594 28 58 32.701 58 38.5C58 43.0087 50.9631 46.852 41.083 48.3398C40.7241 45.5794 40.278 42.8525 39.8525 40.5C39.8525 39.6716 36.3387 39.0001 32.0049 39C27.8062 39 24.3772 39.6303 24.167 40.4229L24.1562 40.5C23.7307 42.8529 23.2827 45.58 22.9238 48.3408C13.0401 46.8537 6 43.0097 6 38.5C6 32.701 17.6406 28 32 28Z" stroke="currentColor" stroke-width="2"/>
<path d="M32.0016 14C40.7378 14.0004 60.1663 28.2887 57.9782 38.1104C57.4703 32.492 46.0348 28 31.9987 28C17.9722 28 6.54177 32.4857 6.0192 38.0986C3.85127 28.2773 23.269 14.0003 32.0016 14Z" fill="currentColor"/>
</g>
<defs>
<clipPath id="clip0_1632_704">
<rect width="64" height="64" fill="white"/>
</clipPath>
</defs>
</svg>
