<svg viewBox="0 0 64 64" fill="none" xmlns="http://www.w3.org/2000/svg">
  <path
    d="M57.0605 7.62158C58.8074 7.62158 60.4194 8.56975 61.2666 10.0961C61.6416 10.7716 61.8453 11.5105 61.8693 12.2675C62.4989 12.6882 63.0181 13.252 63.3931 13.9275C64.0163 15.05 64.1649 16.3479 63.8117 17.5823C63.4586 18.8167 62.6459 19.8397 61.5233 20.4628C60.8108 20.8584 60.0051 21.0675 59.194 21.0676C58.1209 21.0676 57.0898 20.711 56.256 20.0684L45.7394 25.9052L43.3693 24.6241L43.4001 24.6064L39.6721 22.4996L39.5576 22.5636L37.1875 21.2825L52.2809 12.9051C52.2062 12.1451 52.3128 11.3695 52.5976 10.6525C53.0057 9.62521 53.7633 8.76357 54.7312 8.22635C55.4438 7.83074 56.2492 7.62162 57.0605 7.62158Z"
    fill="currentColor" />
  <path
    d="M57.0605 56.3784C58.8074 56.3784 60.4194 55.4302 61.2666 53.9039C61.6416 53.2284 61.8453 52.4895 61.8693 51.7325C62.4989 51.3118 63.0181 50.748 63.3931 50.0725C64.0163 48.95 64.1649 47.6521 63.8117 46.4177C63.4586 45.1833 62.6459 44.1603 61.5233 43.5372C60.8108 43.1416 60.0051 42.9325 59.194 42.9324C58.1209 42.9324 57.0898 43.289 56.256 43.9316L45.7394 38.0948L43.3693 39.3759L43.4001 39.3936L39.6721 41.5004L39.5576 41.4364L37.1875 42.7175L52.2809 51.0949C52.2062 51.8549 52.3128 52.6305 52.5976 53.3475C53.0057 54.3748 53.7633 55.2364 54.7312 55.7737C55.4438 56.1693 56.2492 56.3784 57.0605 56.3784Z"
    fill="currentColor" />
  <path
    d="M6.93954 7.62158C5.19256 7.62158 3.58062 8.56975 2.73343 10.0961C2.35843 10.7716 2.15465 11.5105 2.13069 12.2675C1.50111 12.6882 0.981921 13.252 0.606924 13.9275C-0.0162894 15.05 -0.164867 16.3479 0.188281 17.5823C0.541436 18.8167 1.35412 19.8397 2.4767 20.4628C3.18921 20.8584 3.99485 21.0675 4.80597 21.0676C5.87906 21.0676 6.91019 20.711 7.74404 20.0684L18.2606 25.9052L20.6307 24.6241L20.5999 24.6064L24.3279 22.4996L24.4424 22.5636L26.8125 21.2825L11.7191 12.9051C11.7938 12.1451 11.6872 11.3695 11.4024 10.6525C10.9943 9.62521 10.2367 8.76357 9.26881 8.22635C8.55619 7.83074 7.75076 7.62162 6.93954 7.62158Z"
    fill="currentColor" />
  <path
    d="M6.93888 56.3784C5.1919 56.3784 3.57996 55.4302 2.73278 53.9038C2.35778 53.2283 2.154 52.4894 2.13003 51.7324C1.50046 51.3117 0.981265 50.7479 0.606268 50.0725C-0.0169453 48.9499 -0.165523 47.652 0.187625 46.4177C0.54078 45.1833 1.35346 44.1602 2.47604 43.5371C3.18855 43.1416 3.9942 42.9324 4.80531 42.9323C5.87841 42.9323 6.90953 43.2889 7.74338 43.9315L18.2599 38.0947L20.63 39.3759L20.5993 39.3935L24.3272 41.5004L24.4417 41.4363L26.8118 42.7175L11.7185 51.0949C11.7931 51.8548 11.6865 52.6304 11.4017 53.3475C10.9937 54.3747 10.2361 55.2364 9.26816 55.7736C8.55553 56.1692 7.75011 56.3783 6.93888 56.3784Z"
    fill="currentColor" />
  <path fill-rule="evenodd" clip-rule="evenodd"
    d="M32.7966 9.6875C37.2369 9.70195 41.5603 11.1871 44.9695 13.8689C46.7611 15.2783 48.2401 16.9713 49.3648 18.9002C50.5637 20.9564 51.3364 23.2447 51.6607 25.7009C52.2722 30.3308 50.6563 32.4873 49.2306 34.3895C47.8773 36.1951 46.8083 37.6214 47.4869 41.2083C47.8026 42.877 47.6171 44.1392 46.921 45.0664C45.9037 46.421 44.1217 46.5925 42.6897 46.7299C41.9778 46.7981 41.241 46.8687 40.8471 47.0638C40.6992 47.1371 40.5825 47.1951 40.6227 47.6575C40.7749 49.4079 40.3778 50.8129 39.4434 51.8323C37.8611 53.558 35.0581 53.7792 32.793 53.7792C29.598 53.7792 27.2929 53.0611 25.9424 51.6452C24.9743 50.63 24.522 49.3031 24.5982 47.7019C24.6249 47.1428 24.6341 46.9337 22.4677 46.7254C21.0575 46.5898 19.3022 46.4207 18.2974 45.0826C17.6023 44.1568 17.419 42.8894 17.737 41.2083C18.4156 37.6217 17.3466 36.195 15.9933 34.3895C14.5674 32.4872 12.9511 30.3312 13.5627 25.7009C13.8872 23.2443 14.6816 20.9518 15.9232 18.8871C17.0802 16.9631 18.6022 15.2713 20.4471 13.8593C22.1945 12.522 24.1709 11.4795 26.3202 10.7608C28.429 10.0559 30.6059 9.69455 32.7895 9.6875H32.7966ZM32.5691 42.9616C32.556 42.9623 32.5427 42.9629 32.5297 42.9641C32.5139 42.9656 32.498 42.9678 32.4823 42.9702C32.4707 42.9719 32.4586 42.9741 32.447 42.9762C32.4309 42.9794 32.4143 42.9828 32.3981 42.9868C32.3865 42.9898 32.3748 42.993 32.3633 42.9964C32.3481 43.0008 32.3329 43.0057 32.3179 43.011C32.3053 43.0155 32.2925 43.0206 32.2801 43.0257C32.2671 43.0309 32.2541 43.0363 32.2412 43.0423C32.2268 43.049 32.2121 43.0565 32.1979 43.064C32.1874 43.0695 32.177 43.0756 32.1666 43.0816C32.1508 43.0908 32.135 43.1006 32.1197 43.1109C32.1146 43.1144 32.109 43.1174 32.104 43.121C32.1003 43.1236 32.097 43.1269 32.0934 43.1296C32.0787 43.1403 32.0641 43.1517 32.0501 43.1634C32.0407 43.1711 32.0313 43.179 32.0223 43.1871C32.011 43.1974 32 43.2083 31.989 43.2193C31.9781 43.2301 31.9669 43.2409 31.9568 43.2521C31.9486 43.2612 31.9409 43.2708 31.933 43.2804C31.9214 43.2944 31.9098 43.3086 31.8993 43.3232C31.8965 43.3269 31.8933 43.3306 31.8907 43.3343C31.868 43.3666 31.3669 44.0815 30.9354 44.9272C30.2217 46.3257 30.0917 47.297 30.5263 47.9843C30.7448 48.3296 31.1707 48.7001 31.9931 48.7C32.1644 48.7 32.3532 48.6839 32.5605 48.6481C32.5781 48.6451 32.5953 48.6405 32.6125 48.6365C32.6295 48.6405 32.6469 48.6451 32.6644 48.6481C32.8719 48.6839 33.0606 48.7 33.2319 48.7C34.0541 48.7 34.4807 48.3296 34.6991 47.9843C35.1336 47.2971 35.0036 46.3255 34.2901 44.9272C33.8585 44.0813 33.3568 43.3664 33.3342 43.3343C33.3316 43.3306 33.3283 43.327 33.3257 43.3232C33.3149 43.3086 33.3035 43.294 33.2919 43.2799C33.2841 43.2706 33.2762 43.261 33.2682 43.2521C33.258 43.2408 33.2473 43.2297 33.2364 43.2188C33.2256 43.2081 33.2144 43.1973 33.2031 43.1871C33.194 43.1789 33.1843 43.1711 33.1749 43.1634C33.1609 43.1516 33.1465 43.1403 33.132 43.1296C33.1283 43.1268 33.1247 43.1236 33.1209 43.121C33.1158 43.1175 33.1103 43.1143 33.1053 43.1109C33.0901 43.1007 33.0745 43.0908 33.0588 43.0816C33.0482 43.0754 33.0373 43.0692 33.0266 43.0635C33.0127 43.0561 32.9984 43.0494 32.9842 43.0428C32.971 43.0367 32.9576 43.0306 32.9444 43.0251C32.9323 43.0204 32.9198 43.0158 32.9075 43.0115C32.8921 43.006 32.8767 43.0004 32.8611 42.9959C32.8502 42.9926 32.8388 42.9897 32.8278 42.9868C32.8112 42.9828 32.7941 42.9793 32.7774 42.9762C32.7663 42.9741 32.7552 42.9719 32.7441 42.9702C32.7277 42.9677 32.7111 42.9656 32.6947 42.9641C32.6823 42.9629 32.6697 42.9622 32.6574 42.9616C32.6425 42.9608 32.6274 42.9606 32.6125 42.9606C32.5982 42.9606 32.5834 42.9609 32.5691 42.9616ZM25.7326 32.3896C24.4951 32.3896 23.3228 32.7772 22.4324 33.4811C21.481 34.2334 20.9571 35.2523 20.957 36.3501C20.957 37.4478 21.481 38.4667 22.4324 39.219C23.3227 39.9229 24.495 40.311 25.7326 40.311C26.97 40.3109 28.142 39.9229 29.0323 39.219C29.9836 38.4667 30.5076 37.4477 30.5076 36.3501C30.5076 35.2524 29.9835 34.2333 29.0323 33.4811C28.142 32.7772 26.9699 32.3897 25.7326 32.3896ZM39.3819 32.3896C38.1444 32.3896 36.9721 32.7773 36.0817 33.4811C35.1303 34.2334 34.6064 35.2523 34.6063 36.3501C34.6063 37.4478 35.1302 38.4667 36.0817 39.219C36.972 39.9228 38.1444 40.311 39.3819 40.311C40.6192 40.3109 41.7913 39.9228 42.6816 39.219C43.6329 38.4667 44.1569 37.4476 44.1569 36.3501C44.1569 35.2525 43.6328 34.2333 42.6816 33.4811C41.7914 32.7773 40.6191 32.3897 39.3819 32.3896Z"
    fill="currentColor" />
</svg>