<svg viewBox="0 0 64 64" fill="none" xmlns="http://www.w3.org/2000/svg">
  <path fill-rule="evenodd" clip-rule="evenodd"
    d="M32.7966 9.6875C37.2369 9.70195 41.5603 11.1871 44.9695 13.8689C46.7611 15.2783 48.2401 16.9713 49.3648 18.9002C50.5637 20.9564 51.3364 23.2447 51.6607 25.7009C52.2722 30.3308 50.6563 32.4873 49.2306 34.3895C47.8773 36.1951 46.8083 37.6214 47.4869 41.2083C47.8026 42.877 47.6171 44.1392 46.921 45.0664C45.9037 46.421 44.1217 46.5925 42.6897 46.7299C41.9778 46.7981 41.241 46.8687 40.8471 47.0638C40.6992 47.1371 40.5825 47.1951 40.6227 47.6575C40.7749 49.4079 40.3778 50.8129 39.4434 51.8323C37.8611 53.558 35.0581 53.7792 32.793 53.7792C29.598 53.7792 27.2929 53.0611 25.9424 51.6452C24.9743 50.63 24.522 49.3031 24.5982 47.7019C24.6249 47.1428 24.6341 46.9337 22.4677 46.7254C21.0575 46.5898 19.3022 46.4207 18.2974 45.0826C17.6023 44.1568 17.419 42.8894 17.737 41.2083C18.4156 37.6217 17.3466 36.195 15.9933 34.3895C14.5674 32.4872 12.9511 30.3312 13.5627 25.7009C13.8872 23.2443 14.6816 20.9518 15.9232 18.8871C17.0802 16.9631 18.6022 15.2713 20.4471 13.8593C22.1945 12.522 24.1709 11.4795 26.3202 10.7608C28.429 10.0559 30.6059 9.69455 32.7895 9.6875H32.7966ZM32.5691 42.9616C32.556 42.9623 32.5427 42.9629 32.5297 42.9641C32.5139 42.9656 32.498 42.9678 32.4823 42.9702C32.4707 42.9719 32.4586 42.9741 32.447 42.9762C32.4309 42.9794 32.4143 42.9828 32.3981 42.9868C32.3865 42.9898 32.3748 42.993 32.3633 42.9964C32.3481 43.0008 32.3329 43.0057 32.3179 43.011C32.3053 43.0155 32.2925 43.0206 32.2801 43.0257C32.2671 43.0309 32.2541 43.0363 32.2412 43.0423C32.2268 43.049 32.2121 43.0565 32.1979 43.064C32.1874 43.0695 32.177 43.0756 32.1666 43.0816C32.1508 43.0908 32.135 43.1006 32.1197 43.1109C32.1146 43.1144 32.109 43.1174 32.104 43.121C32.1003 43.1236 32.097 43.1269 32.0934 43.1296C32.0787 43.1403 32.0641 43.1517 32.0501 43.1634C32.0407 43.1711 32.0313 43.179 32.0223 43.1871C32.011 43.1974 32 43.2083 31.989 43.2193C31.9781 43.2301 31.9669 43.2409 31.9568 43.2521C31.9486 43.2612 31.9409 43.2708 31.933 43.2804C31.9214 43.2944 31.9098 43.3086 31.8993 43.3232C31.8965 43.3269 31.8933 43.3306 31.8907 43.3343C31.868 43.3666 31.3669 44.0815 30.9354 44.9272C30.2217 46.3257 30.0917 47.297 30.5263 47.9843C30.7448 48.3296 31.1707 48.7001 31.9931 48.7C32.1644 48.7 32.3532 48.6839 32.5605 48.6481C32.5781 48.6451 32.5953 48.6405 32.6125 48.6365C32.6295 48.6405 32.6469 48.6451 32.6644 48.6481C32.8719 48.6839 33.0606 48.7 33.2319 48.7C34.0541 48.7 34.4807 48.3296 34.6991 47.9843C35.1336 47.2971 35.0036 46.3255 34.2901 44.9272C33.8585 44.0813 33.3568 43.3664 33.3342 43.3343C33.3316 43.3306 33.3283 43.327 33.3257 43.3232C33.3149 43.3086 33.3035 43.294 33.2919 43.2799C33.2841 43.2706 33.2762 43.261 33.2682 43.2521C33.258 43.2408 33.2473 43.2297 33.2364 43.2188C33.2256 43.2081 33.2144 43.1973 33.2031 43.1871C33.194 43.1789 33.1843 43.1711 33.1749 43.1634C33.1609 43.1516 33.1465 43.1403 33.132 43.1296C33.1283 43.1268 33.1247 43.1236 33.1209 43.121C33.1158 43.1175 33.1103 43.1143 33.1053 43.1109C33.0901 43.1007 33.0745 43.0908 33.0588 43.0816C33.0482 43.0754 33.0373 43.0692 33.0266 43.0635C33.0127 43.0561 32.9984 43.0494 32.9842 43.0428C32.971 43.0367 32.9576 43.0306 32.9444 43.0251C32.9323 43.0204 32.9198 43.0158 32.9075 43.0115C32.8921 43.006 32.8767 43.0004 32.8611 42.9959C32.8502 42.9926 32.8388 42.9897 32.8278 42.9868C32.8112 42.9828 32.7941 42.9793 32.7774 42.9762C32.7663 42.9741 32.7552 42.9719 32.7441 42.9702C32.7277 42.9677 32.7111 42.9656 32.6947 42.9641C32.6823 42.9629 32.6697 42.9622 32.6574 42.9616C32.6425 42.9608 32.6274 42.9606 32.6125 42.9606C32.5982 42.9606 32.5834 42.9609 32.5691 42.9616ZM25.7326 32.3896C24.4951 32.3896 23.3228 32.7772 22.4324 33.4811C21.481 34.2334 20.9571 35.2523 20.957 36.3501C20.957 37.4478 21.481 38.4667 22.4324 39.219C23.3227 39.9229 24.495 40.311 25.7326 40.311C26.97 40.3109 28.142 39.9229 29.0323 39.219C29.9836 38.4667 30.5076 37.4477 30.5076 36.3501C30.5076 35.2524 29.9835 34.2333 29.0323 33.4811C28.142 32.7772 26.9699 32.3897 25.7326 32.3896ZM39.3819 32.3896C38.1444 32.3896 36.9721 32.7773 36.0817 33.4811C35.1303 34.2334 34.6064 35.2523 34.6063 36.3501C34.6063 37.4478 35.1302 38.4667 36.0817 39.219C36.972 39.9228 38.1444 40.311 39.3819 40.311C40.6192 40.3109 41.7913 39.9228 42.6816 39.219C43.6329 38.4667 44.1569 37.4476 44.1569 36.3501C44.1569 35.2525 43.6328 34.2333 42.6816 33.4811C41.7914 32.7773 40.6191 32.3897 39.3819 32.3896Z"
    fill="currentColor" />
  <path
    d="M15.9424 39.3804C15.9298 39.7905 15.8789 40.2698 15.7715 40.8374C15.3996 42.8042 15.5317 44.7301 16.6982 46.2837C17.1085 46.83 17.586 47.2442 18.084 47.561L11.7188 51.0952C11.7933 51.855 11.6861 52.6303 11.4014 53.3472C10.9934 54.3744 10.2364 55.2367 9.26855 55.7739C8.55593 56.1695 7.7497 56.3784 6.93848 56.3784C5.19167 56.3783 3.57953 55.43 2.73242 53.9038C2.35748 53.2283 2.15385 52.4889 2.12988 51.7319C1.50055 51.3113 0.98136 50.7479 0.606445 50.0728C-0.0167683 48.9502 -0.165648 47.6518 0.1875 46.4175C0.540674 45.1832 1.35402 44.1597 2.47656 43.5366C3.18893 43.1413 3.99476 42.9322 4.80566 42.9321C5.8785 42.9322 6.90945 43.2888 7.74316 43.9312L15.9424 39.3804ZM19.9512 46.2603C19.8691 46.2301 19.7882 46.1973 19.708 46.1626C19.7882 46.1971 19.8691 46.2301 19.9512 46.2603ZM19.708 46.1626C19.6966 46.1577 19.6852 46.153 19.6738 46.1479C19.6852 46.153 19.6966 46.1577 19.708 46.1626ZM19.6738 46.1479C19.5903 46.111 19.5076 46.0723 19.4268 46.0298C19.5076 46.0723 19.5903 46.1111 19.6738 46.1479ZM18.1768 44.9106C18.1393 44.8531 18.1041 44.794 18.0703 44.7339C18.1043 44.7938 18.1393 44.853 18.1768 44.9106ZM17.8994 44.3853C17.9503 44.5056 18.0073 44.6218 18.0703 44.7339C18.0675 44.7289 18.0643 44.7242 18.0615 44.7192C18.0015 44.612 17.948 44.5004 17.8994 44.3853ZM20.2314 46.355C20.1398 46.327 20.0488 46.296 19.959 46.2632L20.2314 46.355ZM18.2979 45.0835C18.2556 45.0272 18.2151 44.9696 18.1768 44.9106C18.2151 44.9696 18.2557 45.0273 18.2979 45.0835Z"
    fill="currentColor" />
  <path
    d="M6.93848 7.62158C7.7497 7.62162 8.55593 7.83047 9.26855 8.22607C10.2364 8.76331 10.9934 9.62565 11.4014 10.6528C11.6861 11.3697 11.7933 12.145 11.7188 12.9048L16.04 15.3032C15.3617 16.1051 14.7491 16.9572 14.208 17.8569C13.3273 19.3216 12.6499 20.8873 12.1807 22.5317L7.74316 20.0688C6.90946 20.7112 5.87848 21.0678 4.80566 21.0679C3.99455 21.0678 3.1881 20.8579 2.47559 20.4624C1.35334 19.8393 0.540629 18.8166 0.1875 17.5825C-0.165648 16.3482 -0.0167683 15.0498 0.606445 13.9272C0.981431 13.2519 1.50038 12.6877 2.12988 12.2671C2.15391 11.5103 2.35756 10.7715 2.73242 10.0962C3.57954 8.56994 5.19165 7.62173 6.93848 7.62158ZM14.7188 21.2935C14.7926 21.1116 14.8702 20.9315 14.9502 20.7524C14.8703 20.9315 14.7926 21.1116 14.7188 21.2935ZM14.9502 20.7524C14.9653 20.7186 14.9798 20.6846 14.9951 20.6509C14.9798 20.6846 14.9653 20.7186 14.9502 20.7524ZM14.9951 20.6509C15.077 20.4706 15.1629 20.2921 15.251 20.1147C15.1629 20.2921 15.077 20.4706 14.9951 20.6509ZM15.251 20.1147C15.2657 20.0851 15.2801 20.0554 15.2949 20.0259C15.2801 20.0554 15.2657 20.0851 15.251 20.1147ZM15.2949 20.0259C15.3825 19.8519 15.4729 19.6794 15.5664 19.5083C15.4729 19.6794 15.3825 19.8519 15.2949 20.0259ZM15.5664 19.5083C15.5821 19.4795 15.5984 19.451 15.6143 19.4224C15.5984 19.451 15.5821 19.4795 15.5664 19.5083ZM16.4531 18.0591C16.2687 18.3301 16.0919 18.6062 15.9229 18.8872C16.0919 18.6062 16.269 18.3303 16.4531 18.0591ZM16.6729 17.7427C16.6961 17.71 16.7197 17.6775 16.7432 17.645C16.7197 17.6775 16.6961 17.71 16.6729 17.7427ZM16.7432 17.645C16.7811 17.5925 16.8189 17.5398 16.8574 17.4878C16.8917 17.4415 16.9271 17.396 16.9619 17.3501C16.8881 17.4478 16.8149 17.5459 16.7432 17.645ZM16.9619 17.3501C16.9806 17.3254 16.9988 17.3005 17.0176 17.2759C16.9988 17.3004 16.9806 17.3255 16.9619 17.3501ZM17.0176 17.2759C17.0491 17.2348 17.0805 17.1937 17.1123 17.1528C17.1543 17.0989 17.1966 17.0452 17.2393 16.9917C17.1644 17.0857 17.0905 17.1805 17.0176 17.2759ZM17.2393 16.9917C17.2583 16.9678 17.2777 16.9442 17.2969 16.9204C17.2777 16.9442 17.2583 16.9678 17.2393 16.9917ZM17.5439 16.6196C17.6362 16.5101 17.7302 16.4019 17.8252 16.2944C17.7302 16.4019 17.6362 16.5101 17.5439 16.6196ZM14.5518 21.7222C14.6025 21.587 14.6549 21.4526 14.709 21.3188L14.5518 21.7222ZM14.7158 21.3022L14.709 21.3188C14.7124 21.3104 14.7153 21.3019 14.7188 21.2935C14.7176 21.2963 14.717 21.2994 14.7158 21.3022ZM16.4531 18.0591C16.5253 17.9529 16.5983 17.8473 16.6729 17.7427C16.5983 17.8473 16.5253 17.9529 16.4531 18.0591ZM17.2969 16.9204C17.3782 16.8194 17.4603 16.7189 17.5439 16.6196C17.4603 16.719 17.3782 16.8194 17.2969 16.9204Z"
    fill="currentColor" />
  <path
    d="M56.2559 43.9312C57.0897 43.2886 58.1213 42.9321 59.1943 42.9321C60.0054 42.9322 60.811 43.1421 61.5234 43.5376C62.6458 44.1607 63.4584 45.1833 63.8115 46.4175C64.1647 47.6518 64.0168 48.9502 63.3936 50.0728C63.0186 50.7482 62.4987 51.3122 61.8691 51.7329C61.8451 52.4897 61.6415 53.2284 61.2666 53.9038C60.4194 55.4301 58.8075 56.3784 57.0605 56.3784C56.2494 56.3784 55.444 56.1694 54.7314 55.7739C53.7635 55.2367 53.0057 54.3744 52.5977 53.3472C52.313 52.6303 52.2067 51.855 52.2812 51.0952L46.5117 47.8931C47.2285 47.549 47.9415 47.0389 48.5205 46.2681C49.6849 44.7169 49.8231 42.7989 49.4521 40.8374C49.4016 40.5702 49.3656 40.3223 49.3379 40.0923L56.2559 43.9312Z"
    fill="currentColor" />
  <path
    d="M57.0605 7.62158C58.8075 7.62161 60.4194 8.56985 61.2666 10.0962C61.6415 10.7716 61.8451 11.5103 61.8691 12.2671C62.4987 12.6878 63.0186 13.2518 63.3936 13.9272C64.0168 15.0498 64.1647 16.3482 63.8115 17.5825C63.4584 18.8167 62.6458 19.8393 61.5234 20.4624C60.811 20.8579 60.0054 21.0678 59.1943 21.0679C58.1213 21.0679 57.0897 20.7114 56.2559 20.0688L52.875 21.9438C52.4319 20.5262 51.8377 19.1707 51.0928 17.8931C50.4496 16.7901 49.7019 15.7582 48.8594 14.8032L52.2812 12.9048C52.2067 12.145 52.313 11.3697 52.5977 10.6528C53.0057 9.62558 53.7635 8.7633 54.7314 8.22607C55.444 7.83058 56.2494 7.62162 57.0605 7.62158Z"
    fill="currentColor" />
</svg>