<svg viewBox="0 0 64 64" fill="none" xmlns="http://www.w3.org/2000/svg">
  <path
    d="M48.905 6.54618C49.3264 6.239 49.9032 6.28583 50.2771 6.65946C50.6921 7.08099 50.692 7.75304 50.2771 8.16825L42.2361 16.2102C41.7005 16.7395 41.7005 17.5984 42.2361 18.1341C42.7654 18.6695 43.6243 18.6696 44.1599 18.1341L51.8777 10.4163C52.3722 9.92202 53.1685 9.9219 53.6629 10.4163C54.1567 10.9107 54.1568 11.7061 53.6629 12.2005L45.9441 19.9182C45.4086 20.4474 45.4088 21.3064 45.9441 21.8421C46.4734 22.3776 47.3323 22.3776 47.8679 21.8421L55.9099 13.8011C56.3316 13.3861 57.0036 13.3859 57.4187 13.8011C57.7924 14.1749 57.8399 14.7517 57.533 15.1731C56.1478 17.097 52.3408 22.2579 48.2996 26.2991C44.2619 30.34 42.8889 30.4289 41.282 30.055L41.2742 30.0511C40.6245 29.9053 39.9337 30.0929 39.4646 30.5618L37.8933 32.1321L37.782 32.0208L29.7029 40.0999L29.8132 40.2102L13.4441 56.5804C11.8055 58.2285 9.14599 58.2284 7.49782 56.5804C5.8497 54.9417 5.84967 52.2822 7.49782 50.6341L22.5339 35.597L22.4822 35.555L33.031 25.0061L33.073 25.0452L33.5134 24.6067C33.9919 24.1344 34.1785 23.4459 34.0232 22.7962C33.6397 21.1989 33.7381 19.8196 37.7791 15.7786C41.6999 11.861 46.9905 7.93447 48.905 6.54618Z"
    fill="currentColor" />
</svg>
