<svg viewBox="0 0 64 64" fill="none" xmlns="http://www.w3.org/2000/svg">
  <path
    d="M62.3557 18.0238H20.996C20.1107 18.0238 19.3518 17.2649 19.3518 16.3795C19.3518 15.4942 20.1107 14.7353 20.996 14.7353H62.3557C63.2411 14.7353 64 15.4942 64 16.3795C64 17.2649 63.2411 18.0238 62.3557 18.0238Z"
    fill="currentColor" />
  <path
    d="M8.09486 18.0238H1.64427C0.758894 18.0238 0 17.2649 0 16.3795C0 15.4942 0.758894 14.7353 1.64427 14.7353H8.09486C8.98024 14.7353 9.73913 15.4942 9.73913 16.3795C9.73913 17.2649 9.10672 18.0238 8.09486 18.0238Z"
    fill="currentColor" />
  <path
    d="M62.3557 33.5811H51.4783C50.5929 33.5811 49.834 32.8222 49.834 31.9368C49.834 31.0515 50.5929 30.2926 51.4783 30.2926H62.3557C63.2411 30.2926 64 31.0515 64 31.9368C64 32.8222 63.2411 33.5811 62.3557 33.5811Z"
    fill="currentColor" />
  <path
    d="M38.5771 33.5811H1.64427C0.758894 33.5811 0 32.8222 0 31.9368C0 31.0515 0.758894 30.2926 1.64427 30.2926H38.5771C39.4625 30.2926 40.2213 31.0515 40.2213 31.9368C40.2213 32.8222 39.4625 33.5811 38.5771 33.5811Z"
    fill="currentColor" />
  <path
    d="M62.3557 49.2649H20.996C20.1107 49.2649 19.3518 48.506 19.3518 47.6206C19.3518 46.7353 20.1107 45.9764 20.996 45.9764H62.3557C63.2411 45.9764 64 46.7353 64 47.6206C64 48.506 63.2411 49.2649 62.3557 49.2649Z"
    fill="currentColor" />
  <path
    d="M8.09486 49.2649H1.64427C0.758894 49.2649 0 48.506 0 47.6206C0 46.6088 0.758894 45.8499 1.64427 45.8499H8.09486C8.98024 45.8499 9.73913 46.6088 9.73913 47.4942C9.86561 48.506 9.10672 49.2649 8.09486 49.2649Z"
    fill="currentColor" />
  <path
    d="M14.5455 24.4744C10.1186 24.4744 6.45059 20.8064 6.45059 16.3795C6.45059 11.9527 10.1186 8.28467 14.5455 8.28467C18.9723 8.28467 22.6403 11.9527 22.6403 16.3795C22.6403 20.8064 19.0988 24.4744 14.5455 24.4744ZM14.5455 11.5732C11.8893 11.5732 9.73913 13.7234 9.73913 16.3795C9.73913 19.0357 11.8893 21.1859 14.5455 21.1859C17.2016 21.1859 19.3518 19.0357 19.3518 16.3795C19.3518 13.7234 17.2016 11.5732 14.5455 11.5732Z"
    fill="currentColor" />
  <path
    d="M45.0277 40.0317C40.6008 40.0317 36.9328 36.3637 36.9328 31.9368C36.9328 27.51 40.6008 23.842 45.0277 23.842C49.4545 23.842 53.1225 27.51 53.1225 31.9368C53.1225 36.3637 49.581 40.0317 45.0277 40.0317ZM45.0277 27.1305C42.3715 27.1305 40.2213 29.2807 40.2213 31.9368C40.2213 34.593 42.3715 36.7432 45.0277 36.7432C47.6838 36.7432 49.834 34.593 49.834 31.9368C49.834 29.2807 47.6838 27.1305 45.0277 27.1305Z"
    fill="currentColor" />
  <path
    d="M14.5455 55.7155C10.1186 55.7155 6.45059 52.0475 6.45059 47.6206C6.45059 43.0673 10.1186 39.5258 14.5455 39.5258C18.9723 39.5258 22.6403 43.1938 22.6403 47.6206C22.7668 52.0475 19.0988 55.7155 14.5455 55.7155ZM14.5455 42.8143C11.8893 42.8143 9.73913 44.9645 9.73913 47.6206C9.73913 50.2768 11.8893 52.427 14.5455 52.427C17.2016 52.427 19.3518 50.2768 19.3518 47.6206C19.3518 44.9645 17.2016 42.8143 14.5455 42.8143Z"
    fill="currentColor" />
</svg>