<svg viewBox="0 0 64 64" fill="none" xmlns="http://www.w3.org/2000/svg">
<path d="M39.0244 38.3525C39.6291 41.7908 40.2498 45.8731 40.5703 49.6465C40.745 51.7033 40.8295 53.652 40.7773 55.3447C40.7312 56.84 40.5798 58.0825 40.3174 59.0088L40.1982 59.3867C39.7115 60.7685 38.7687 61.6464 37.4082 62.2031C36.0051 62.7772 34.1712 63 32 63C29.8286 63 27.9942 62.7772 26.5908 62.2031C25.315 61.6811 24.4061 60.8768 23.8965 59.6396L23.8008 59.3867C23.4651 58.4324 23.2751 57.0537 23.2227 55.3447C23.1707 53.6519 23.2551 51.7034 23.4297 49.6465C23.75 45.8732 24.3691 41.7907 24.9736 38.3525C26.7878 38.5271 28.7547 38.6295 30.9033 38.6553L32 38.6621C34.5781 38.6621 36.9042 38.5563 39.0244 38.3525Z" stroke="currentColor" stroke-width="2"/>
<path d="M31.999 1C34.2966 1.00015 37.583 2.12186 41.1104 4.06934C44.6056 5.99908 48.2085 8.6684 51.1182 11.6064C54.0454 14.5623 56.1826 17.7013 56.8926 20.5566C57.2434 21.9677 57.2388 23.2788 56.8428 24.4668C56.4484 25.6496 55.6406 26.7882 54.2559 27.8203C49.1958 31.5906 43.5406 33.8007 31.999 33.8008C20.4541 33.8007 14.7983 31.5907 9.73828 27.8203H9.73926C8.35473 26.7882 7.54643 25.6496 7.15234 24.4668C6.75661 23.2789 6.75263 21.9685 7.10352 20.5576C7.81378 17.7022 9.9504 14.5624 12.8779 11.6064C15.7878 8.6683 19.3914 5.99916 22.8867 4.06934C26.194 2.24338 29.2894 1.14308 31.5566 1.0127L31.999 1Z" stroke="currentColor" stroke-width="2"/>
<path d="M54.7907 14.3154C55.2066 14.8723 55.5907 15.4329 55.9401 15.9941L37.3151 34.6191C36.3694 34.6881 35.3788 34.7383 34.3385 34.7676L54.7907 14.3154Z" fill="currentColor"/>
<path d="M50.7575 9.86328C51.2483 10.3234 51.7233 10.7926 52.1813 11.2676L28.7145 34.7354C27.7867 34.6972 26.8995 34.6426 26.0495 34.5713L50.7575 9.86328Z" fill="currentColor"/>
<path d="M46.0915 6.04395C46.6371 6.43482 47.1771 6.83906 47.7086 7.25488L21.071 33.8926C20.2699 33.7344 19.507 33.556 18.777 33.3584L46.0915 6.04395Z" fill="currentColor"/>
<path d="M57.736 19.8555C57.9776 20.6768 58.1179 21.4867 58.1422 22.2773L47.945 32.4746C46.7063 32.9458 45.3727 33.3493 43.9088 33.6816L57.736 19.8555Z" fill="currentColor"/>
<path d="M40.8542 2.7959C41.4557 3.11177 42.0607 3.45202 42.6676 3.81055L14.6022 31.876C13.9495 31.5828 13.3216 31.2702 12.7135 30.9365L40.8542 2.7959Z" fill="currentColor"/>
<path d="M34.7838 0.380859C35.4753 0.550418 36.1998 0.773275 36.9479 1.0459L9.27408 28.7197C9.22973 28.687 9.18455 28.6551 9.14029 28.6221C8.6164 28.2315 8.16239 27.8203 7.77115 27.3936L34.7838 0.380859Z" fill="currentColor"/>
<path d="M5.92252 23.5859C5.78515 22.6295 5.83996 21.6351 6.06119 20.6191L24.6149 2.06445C26.1898 1.32554 27.7089 0.759982 29.0983 0.40918L5.92252 23.5859Z" fill="currentColor"/>
<path d="M41.7656 52.7979C41.7996 53.7927 41.8022 54.7421 41.7676 55.625L33.4297 63.9629C32.9658 63.9868 32.489 64 32.001 64C31.5226 64 31.0548 63.9867 30.5996 63.9639L41.7656 52.7979Z" fill="currentColor"/>
<path d="M41.0684 45.0098C41.1785 45.8519 41.2786 46.6977 41.3691 47.5371L25.9102 62.9961C25.2671 62.7003 24.6983 62.3271 24.2158 61.8623L41.0684 45.0098Z" fill="currentColor"/>
<path d="M39.9209 37.6719C40.0588 38.4436 40.1984 39.252 40.3359 40.0859L22.4463 57.9756C22.3257 57.1962 22.2516 56.3196 22.2227 55.3701L39.9209 37.6719Z" fill="currentColor"/>
<path d="M22.4395 49.4961C22.5282 48.4603 22.6382 47.4028 22.7646 46.3428L31.4492 37.6582C31.6317 37.6593 31.8158 37.6621 32.001 37.6621C32.7932 37.6621 33.5607 37.6507 34.3047 37.6309L22.4395 49.4961Z" fill="currentColor"/>
<path d="M24.1533 37.2617C24.7541 37.3298 25.3733 37.3884 26.0117 37.4395L23.7246 39.7266C23.8674 38.8718 24.0115 38.0459 24.1533 37.2617Z" fill="currentColor"/>
</svg>
