<svg viewBox="0 0 64 64" fill="none" xmlns="http://www.w3.org/2000/svg">
<g clip-path="url(#clip0_1637_656)">
<path d="M32.0029 15C34.3005 15.0001 37.5869 16.1219 41.1143 18.0693C44.6095 19.9991 48.2124 22.6684 51.1221 25.6064C54.0493 28.5623 56.1865 31.7013 56.8965 34.5566C57.2473 35.9677 57.2427 37.2788 56.8467 38.4668C56.4523 39.6496 55.6446 40.7882 54.2598 41.8203C49.1997 45.5906 43.5445 47.8007 32.0029 47.8008C20.458 47.8008 14.8022 45.5907 9.74219 41.8203H9.74316C8.35864 40.7882 7.55034 39.6496 7.15625 38.4668C6.76052 37.2789 6.75654 35.9685 7.10742 34.5576C7.81768 31.7022 9.95431 28.5624 12.8818 25.6064C15.7917 22.6683 19.3953 19.9992 22.8906 18.0693C26.1979 16.2434 29.2933 15.1431 31.5605 15.0127L32.0029 15Z" stroke="var(--secondary)" stroke-width="2"/>
<path d="M32 29C39.084 29 45.4516 30.1617 50.0107 32.0029C52.2927 32.9245 54.0732 33.9963 55.2666 35.1357C56.4576 36.2729 57 37.4102 57 38.5C57 39.5898 56.4576 40.7271 55.2666 41.8643C54.0732 43.0037 52.2927 44.0755 50.0107 44.9971C45.4516 46.8383 39.084 48 32 48C24.916 48 18.5484 46.8383 13.9893 44.9971C11.7073 44.0755 9.92684 43.0037 8.7334 41.8643C7.54236 40.7271 7 39.5898 7 38.5C7 37.4102 7.54236 36.2729 8.7334 35.1357C9.92684 33.9963 11.7073 32.9245 13.9893 32.0029C18.5484 30.1617 24.916 29 32 29Z" fill="var(--primary)" stroke="var(--secondary)" stroke-width="2"/>
<path d="M32.0049 50.7617C34.1285 50.7618 36.0248 50.9272 37.3662 51.1836C38.0446 51.3133 38.5307 51.4567 38.8232 51.5889C38.8537 51.6026 38.8792 51.6176 38.9014 51.6289C39.5451 55.2084 40.2322 59.6047 40.5752 63.6465C40.7498 65.7033 40.8335 67.652 40.7812 69.3447C40.7285 71.0537 40.5384 72.4327 40.2021 73.3867C39.7154 74.7684 38.7726 75.6464 37.4121 76.2031C36.009 76.7773 34.1751 77 32.0039 77C29.8326 77 27.9981 76.7772 26.5947 76.2031C25.2339 75.6464 24.2904 74.7685 23.8037 73.3867H23.8047C23.469 72.4324 23.279 71.0537 23.2266 69.3447C23.1746 67.6518 23.259 65.7034 23.4336 63.6465C23.7768 59.6044 24.4618 55.2075 25.1055 51.6279C25.1468 51.6068 25.2004 51.5816 25.2686 51.5537C25.5936 51.4207 26.0969 51.2827 26.7695 51.1602C27.937 50.9474 29.4951 50.8015 31.2441 50.7686L32.0049 50.7617Z" stroke="var(--secondary)" stroke-width="2"/>
</g>
<defs>
<clipPath id="clip0_1637_656">
<rect width="64" height="64" fill="white"/>
</clipPath>
</defs>
</svg>
