<svg viewBox="0 0 64 64" fill="none" xmlns="http://www.w3.org/2000/svg">
  <circle cx="32" cy="32" r="30.5" stroke="currentColor" stroke-width="3" />
  <path
    d="M27.3818 52.8779C27.3863 54.4814 26.0885 55.779 24.4805 55.7793C22.877 55.7837 21.5783 54.486 21.5781 52.8779V45.7051L27.3809 39.9023L27.3818 52.8779Z"
    fill="currentColor" />
  <path
    d="M27.9648 10.5459C28.3296 10.546 28.6346 10.8047 28.6904 11.1602C28.9533 12.7749 29.6132 17.1502 29.6133 21.0938C29.6148 25.0359 28.9881 25.7489 28.0215 26.3506L28.0166 26.3525C27.6288 26.5983 27.3822 27.027 27.3818 27.4844V29.0146H27.2773V32.9355L21.5781 38.6348V38.2002L21.5361 38.2051V27.9102L21.5723 27.9092L21.5732 27.4824C21.576 27.0187 21.3311 26.5917 20.9385 26.3506C19.9722 25.7584 19.3477 25.0373 19.3477 21.0947C19.3492 17.2702 20.0137 12.772 20.2705 11.1602C20.3263 10.8051 20.6308 10.5474 20.9951 10.5469C21.4034 10.55 21.7314 10.878 21.7314 11.2832V19.1299C21.7284 19.6494 22.1483 20.0691 22.6709 20.0693C23.1905 20.0724 23.6103 19.6526 23.6104 19.1299V11.5977C23.6106 11.1156 23.9984 10.7279 24.4805 10.7275C24.9628 10.7278 25.3506 11.1163 25.3506 11.5986L25.3516 19.1299C25.3485 19.6494 25.7674 20.0682 26.29 20.0684C26.8096 20.0714 27.2285 19.6525 27.2285 19.1299V11.2832C27.2316 10.8751 27.5599 10.5462 27.9648 10.5459Z"
    fill="currentColor" />
  <path
    d="M43.2723 27.0452L43.2323 27.1155V37.014L43.2703 37.0169V50.6976C43.2702 52.6461 41.8038 54.3166 39.9403 54.4944C38.9043 54.5963 37.8709 54.2533 37.1024 53.556L36.9803 53.4339C36.2923 52.7458 35.8993 51.8049 35.8992 50.8245V34.8362H35.908V31.3734L43.2713 24.0091L43.2723 27.0452Z"
    fill="currentColor" />
  <path
    d="M41.5633 8.66241C41.9991 8.62229 42.4339 8.77225 42.7586 9.06573C43.0849 9.36724 43.2702 9.79152 43.2703 10.2337V16.9388L34.3563 25.8528C34.0824 23.3536 34.4037 20.2965 35.3172 16.4866L35.3397 16.3831C36.8783 9.99819 39.8991 8.80481 41.5633 8.66241Z"
    fill="currentColor" />
  <path d="M53.7461 10.0029L10.259 53.49" stroke="currentColor" stroke-width="3" />
</svg>