<svg viewBox="0 0 65 64" fill="none" xmlns="http://www.w3.org/2000/svg">
  <path fill-rule="evenodd" clip-rule="evenodd"
    d="M40.4562 37.2616C41.768 44.515 43.2998 55.324 41.7508 59.7188C40.559 63.1026 37.0438 64 32.6084 64C28.173 64 24.6578 63.1026 23.466 59.7188C21.9199 55.3234 23.4489 44.5149 24.7606 37.2616C27.0813 37.5245 29.6733 37.6617 32.6088 37.6617C35.541 37.6617 38.1331 37.5245 40.4569 37.2616H40.4562Z"
    fill="currentColor" />
  <path fill-rule="evenodd" clip-rule="evenodd"
    d="M32.608 0C42.8223 0 67.6573 19.5337 55.4625 28.6219C50.1926 32.5487 44.314 34.8007 32.608 34.8007C20.8991 34.8007 15.0205 32.5487 9.75061 28.6219C-2.44119 19.5337 22.3938 0 32.608 0Z"
    fill="currentColor" />
</svg>