<svg viewBox="0 0 64 64" fill="none" xmlns="http://www.w3.org/2000/svg">
<g clip-path="url(#clip0_1640_857)">
<path d="M39.8473 18.6309C41.1591 25.8843 42.6903 36.693 41.1413 41.0879C39.9495 44.4715 36.4349 45.3691 31.9997 45.3691C27.5643 45.3691 24.0489 44.4717 22.8571 41.0879C21.311 36.6924 22.8403 25.8842 24.152 18.6309C26.4725 18.8938 29.0645 19.0312 31.9997 19.0312C34.9317 19.0312 37.5237 18.8937 39.8473 18.6309Z" fill="currentColor"/>
<path d="M32.0029 -17.7617C34.3005 -17.7616 37.5869 -16.6399 41.1143 -14.6924C44.6095 -12.7626 48.2124 -10.0933 51.1221 -7.15527C54.0493 -4.19941 56.1865 -1.06037 56.8965 1.79492C57.2473 3.20595 57.2427 4.51707 56.8467 5.70508C56.4523 6.88784 55.6446 8.02651 54.2598 9.05859C49.1997 12.8289 43.5445 15.039 32.0029 15.0391C20.458 15.039 14.8022 12.829 9.74219 9.05859H9.74316C8.35864 8.02649 7.55034 6.8879 7.15625 5.70508C6.76052 4.51722 6.75654 3.20676 7.10742 1.7959C7.81768 -1.05953 9.95431 -4.19929 12.8818 -7.15527C15.7917 -10.0934 19.3953 -12.7626 22.8906 -14.6924C26.1979 -16.5183 29.2933 -17.6186 31.5605 -17.749L32.0029 -17.7617Z" stroke="currentColor" stroke-width="2"/>
</g>
<defs>
<clipPath id="clip0_1640_857">
<rect width="64" height="64" fill="white"/>
</clipPath>
</defs>
</svg>
