<svg viewBox="0 0 64 64" fill="none" xmlns="http://www.w3.org/2000/svg">
<g clip-path="url(#clip0_1640_857)">
<path d="M39.0244 19.7217C39.6291 23.16 40.2498 27.2423 40.5703 31.0156C40.745 33.0725 40.8295 35.0211 40.7773 36.7139C40.7312 38.2092 40.5798 39.4516 40.3174 40.3779L40.1982 40.7559C39.7115 42.1376 38.7687 43.0155 37.4082 43.5723C36.0051 44.1464 34.1712 44.3691 32 44.3691C29.8286 44.3691 27.9942 44.1464 26.5908 43.5723C25.315 43.0503 24.4061 42.246 23.8965 41.0088L23.8008 40.7559C23.4651 39.8015 23.2751 38.4229 23.2227 36.7139C23.1707 35.021 23.2551 33.0725 23.4297 31.0156C23.75 27.2423 24.3691 23.1599 24.9736 19.7217C26.7878 19.8962 28.7547 19.9987 30.9033 20.0244L32 20.0312C34.5781 20.0312 36.9042 19.9255 39.0244 19.7217Z" fill="var(--primary)" stroke="var(--secondary)" stroke-width="2"/>
<path d="M32.0029 -17.7617C34.3005 -17.7616 37.5869 -16.6399 41.1143 -14.6924C44.6095 -12.7626 48.2124 -10.0933 51.1221 -7.15527C54.0493 -4.19941 56.1865 -1.06037 56.8965 1.79492C57.2473 3.20595 57.2427 4.51707 56.8467 5.70508C56.4523 6.88784 55.6446 8.02651 54.2598 9.05859C49.1997 12.8289 43.5445 15.039 32.0029 15.0391C20.458 15.039 14.8022 12.829 9.74219 9.05859H9.74316C8.35864 8.02649 7.55034 6.8879 7.15625 5.70508C6.76052 4.51722 6.75654 3.20676 7.10742 1.7959C7.81768 -1.05953 9.95431 -4.19929 12.8818 -7.15527C15.7917 -10.0934 19.3953 -12.7626 22.8906 -14.6924C26.1979 -16.5183 29.2933 -17.6186 31.5605 -17.749L32.0029 -17.7617Z" stroke="var(--secondary)" stroke-width="2"/>
</g>
<defs>
<clipPath id="clip0_1640_857">
<rect width="64" height="64" fill="white"/>
</clipPath>
</defs>
</svg>
