<svg viewBox="0 0 65 64" fill="none" xmlns="http://www.w3.org/2000/svg">
  <path fill-rule="evenodd" clip-rule="evenodd"
    d="M33.1911 9.6875C37.6315 9.70195 41.9549 11.1871 45.364 13.8689C47.1556 15.2783 48.6346 16.9713 49.7593 18.9002C50.9582 20.9564 51.7309 23.2447 52.0553 25.7009C52.6668 30.3308 51.0509 32.4873 49.6251 34.3895C48.2718 36.1951 47.2028 37.6214 47.8815 41.2083C48.1971 42.877 48.0116 44.1392 47.3155 45.0664C46.2982 46.421 44.5162 46.5925 43.0842 46.7299C42.3724 46.7981 41.6355 46.8687 41.2417 47.0638C41.0937 47.1371 40.977 47.1951 41.0172 47.6575C41.1695 49.4079 40.7723 50.8129 39.8379 51.8323C38.2556 53.558 35.4527 53.7792 33.1876 53.7792C29.9925 53.7792 27.6874 53.0611 26.3369 51.6452C25.3689 50.63 24.9165 49.3031 24.9927 47.7019C25.0194 47.1428 25.0287 46.9337 22.8622 46.7254C21.452 46.5898 19.6967 46.4207 18.6919 45.0826C17.9968 44.1568 17.8135 42.8894 18.1315 41.2083C18.8101 37.6217 17.7411 36.195 16.3879 34.3895C14.962 32.4872 13.3457 30.3312 13.9572 25.7009C14.2817 23.2443 15.0761 20.9518 16.3177 18.8871C17.4748 16.9631 18.9967 15.2713 20.8416 13.8593C22.589 12.522 24.5654 11.4795 26.7147 10.7608C28.8235 10.0559 31.0005 9.69455 33.184 9.6875H33.1911ZM32.9636 42.9616C32.9505 42.9623 32.9372 42.9629 32.9243 42.9641C32.9085 42.9656 32.8925 42.9678 32.8769 42.9702C32.8652 42.9719 32.8532 42.9741 32.8416 42.9762C32.8254 42.9794 32.8088 42.9828 32.7926 42.9868C32.7811 42.9898 32.7693 42.993 32.7578 42.9964C32.7427 43.0008 32.7274 43.0057 32.7124 43.011C32.6998 43.0155 32.687 43.0206 32.6746 43.0257C32.6616 43.0309 32.6486 43.0363 32.6358 43.0423C32.6213 43.049 32.6066 43.0565 32.5924 43.064C32.5819 43.0695 32.5715 43.0756 32.5611 43.0816C32.5454 43.0908 32.5295 43.1006 32.5142 43.1109C32.5091 43.1144 32.5036 43.1174 32.4986 43.121C32.4948 43.1236 32.4916 43.1269 32.488 43.1296C32.4732 43.1403 32.4586 43.1517 32.4446 43.1634C32.4352 43.1711 32.4258 43.179 32.4169 43.1871C32.4055 43.1974 32.3945 43.2083 32.3836 43.2193C32.3726 43.2301 32.3615 43.2409 32.3513 43.2521C32.3431 43.2612 32.3354 43.2708 32.3276 43.2804C32.316 43.2944 32.3044 43.3086 32.2938 43.3232C32.291 43.3269 32.2878 43.3306 32.2852 43.3343C32.2625 43.3666 31.7614 44.0815 31.3299 44.9272C30.6162 46.3257 30.4862 47.297 30.9208 47.9843C31.1394 48.3296 31.5652 48.7001 32.3876 48.7C32.5589 48.7 32.7478 48.6839 32.955 48.6481C32.9727 48.6451 32.9899 48.6405 33.007 48.6365C33.0241 48.6405 33.0414 48.6451 33.0589 48.6481C33.2664 48.6839 33.4551 48.7 33.6264 48.7C34.4486 48.7 34.8752 48.3296 35.0937 47.9843C35.5281 47.2971 35.3981 46.3255 34.6846 44.9272C34.253 44.0813 33.7514 43.3664 33.7288 43.3343C33.7261 43.3306 33.7228 43.327 33.7202 43.3232C33.7095 43.3086 33.698 43.294 33.6864 43.2799C33.6786 43.2706 33.6707 43.261 33.6627 43.2521C33.6525 43.2408 33.6418 43.2297 33.6309 43.2188C33.6201 43.2081 33.6089 43.1973 33.5976 43.1871C33.5885 43.1789 33.5789 43.1711 33.5694 43.1634C33.5554 43.1516 33.541 43.1403 33.5265 43.1296C33.5228 43.1268 33.5192 43.1236 33.5154 43.121C33.5103 43.1175 33.5049 43.1143 33.4998 43.1109C33.4846 43.1007 33.469 43.0908 33.4534 43.0816C33.4428 43.0754 33.4318 43.0692 33.4211 43.0635C33.4073 43.0561 33.3929 43.0494 33.3787 43.0428C33.3656 43.0367 33.3521 43.0306 33.3389 43.0251C33.3268 43.0204 33.3143 43.0158 33.3021 43.0115C33.2867 43.006 33.2713 43.0004 33.2557 42.9959C33.2448 42.9926 33.2334 42.9897 33.2224 42.9868C33.2057 42.9828 33.1886 42.9793 33.1719 42.9762C33.1609 42.9741 33.1498 42.9719 33.1386 42.9702C33.1222 42.9677 33.1056 42.9656 33.0892 42.9641C33.0768 42.9629 33.0643 42.9622 33.0519 42.9616C33.037 42.9608 33.0219 42.9606 33.007 42.9606C32.9927 42.9606 32.9779 42.9609 32.9636 42.9616ZM26.1271 32.3896C24.8896 32.3896 23.7173 32.7772 22.8269 33.4811C21.8755 34.2334 21.3516 35.2523 21.3516 36.3501C21.3515 37.4478 21.8755 38.4667 22.8269 39.219C23.7173 39.9229 24.8896 40.311 26.1271 40.311C27.3645 40.3109 28.5365 39.9229 29.4268 39.219C30.3782 38.4667 30.9022 37.4477 30.9022 36.3501C30.9021 35.2524 30.3781 34.2333 29.4268 33.4811C28.5366 32.7772 27.3645 32.3897 26.1271 32.3896ZM39.7764 32.3896C38.5389 32.3896 37.3666 32.7773 36.4762 33.4811C35.5248 34.2334 35.0009 35.2523 35.0008 36.3501C35.0008 37.4478 35.5248 38.4667 36.4762 39.219C37.3666 39.9228 38.5389 40.311 39.7764 40.311C41.0137 40.3109 42.1858 39.9228 43.0761 39.219C44.0274 38.4667 44.5515 37.4476 44.5515 36.3501C44.5514 35.2525 44.0273 34.2333 43.0761 33.4811C42.1859 32.7773 41.0137 32.3897 39.7764 32.3896Z"
    fill="currentColor" />
</svg>